<svg width="236" height="26" viewBox="0 0 236 26" fill="none" xmlns="http://www.w3.org/2000/svg">
<path fill-rule="evenodd" clip-rule="evenodd" d="M75.6513 23.3038C75.6513 23.8107 75.396 24.0642 74.8853 24.0642H65.8884C65.6711 24.0642 65.4945 24.0008 65.3587 23.8741C65.2229 23.7474 65.155 23.5683 65.155 23.3369C65.155 23.1386 65.2012 22.9788 65.2935 22.8576C65.3859 22.7363 65.5299 22.6372 65.7254 22.56L66.4263 22.3452C66.6001 22.2901 66.736 22.1854 66.8337 22.0311C66.9315 21.8768 66.9804 21.6565 66.9804 21.37V11.8162C66.9804 11.662 66.9424 11.5325 66.8663 11.4278C66.7903 11.3231 66.649 11.2267 66.4426 11.1386L65.4973 10.8245C65.2473 10.7033 65.0681 10.5738 64.9594 10.4361C64.8507 10.2983 64.7964 10.1303 64.7964 9.93194C64.7964 9.73359 64.8643 9.57106 65.0001 9.44434L65.0535 9.39979C65.1836 9.30276 65.3533 9.25425 65.5624 9.25425H66.9927L66.9814 9.15766C66.9509 8.96448 66.8745 8.77905 66.7523 8.60136C66.5893 8.36445 66.4045 8.09723 66.1981 7.79971C65.9916 7.50219 65.8069 7.14682 65.6439 6.73359C65.481 6.32037 65.3995 5.81073 65.3995 5.20467C65.3995 3.76114 65.8884 2.60687 66.8663 1.74186C67.8443 0.876843 69.2351 0.444336 71.0388 0.444336C72.2014 0.444336 73.1658 0.631664 73.9318 1.00632C74.6979 1.38098 75.271 1.8796 75.6513 2.50219C76.0316 3.12478 76.2218 3.80522 76.2218 4.54351C76.2218 5.41403 75.9963 6.06693 75.5454 6.50219C75.0945 6.93745 74.5159 7.15508 73.8096 7.15508C73.0272 7.15508 72.397 6.90164 71.9189 6.39475C71.4408 5.88786 71.2018 5.21569 71.2018 4.37822V2.90715C71.2018 2.52147 71.1257 2.23772 70.9736 2.05591C70.8215 1.87409 70.5879 1.78318 70.2728 1.78318C69.8707 1.78318 69.5665 1.92092 69.36 2.1964C69.1536 2.47188 69.0504 2.86858 69.0504 3.38648C69.0504 3.91541 69.1726 4.41128 69.4171 4.87409C69.6616 5.3369 69.9631 5.7694 70.3217 6.17161C70.6802 6.57381 71.0388 6.95949 71.3974 7.32863C71.7559 7.69778 72.0575 8.06142 72.3019 8.41954L72.3716 8.5269C72.5036 8.74144 72.5917 8.955 72.6357 9.16756L72.6506 9.25425H75.0646C75.3145 9.25425 75.5074 9.30659 75.6432 9.41128C75.779 9.51596 75.8469 9.6785 75.8469 9.89888C75.8469 10.2295 75.7057 10.4994 75.4231 10.7088C75.1406 10.9182 74.6951 11.0228 74.0867 11.0228H72.9294V21.3204C72.9294 21.6289 72.9756 21.8658 73.068 22.0311C73.1603 22.1964 73.3097 22.2956 73.5162 22.3286L74.9179 22.5435C75.1678 22.5766 75.3525 22.6565 75.472 22.7832C75.5916 22.9099 75.6513 23.0835 75.6513 23.3038ZM43.5592 23.684C42.5813 24.1578 41.4404 24.3947 40.1365 24.3947C38.7566 24.3947 37.5206 24.1027 36.4286 23.5187C35.3366 22.9347 34.4754 22.089 33.8452 20.9815C33.215 19.8741 32.8999 18.527 32.8999 16.9402C32.8999 15.4085 33.2286 14.0394 33.886 12.8328C34.5434 11.6262 35.4588 10.673 36.6323 9.97326C37.8058 9.27354 39.1749 8.92367 40.7396 8.92367C42.0761 8.92367 43.2034 9.12202 44.1215 9.51872C45.0397 9.91541 45.7405 10.4526 46.2241 11.1303C46.7076 11.808 46.9494 12.5655 46.9494 13.403C46.9494 14.2846 46.6967 14.976 46.1915 15.4774C45.6862 15.9788 44.999 16.2295 44.1297 16.2295C43.2387 16.2295 42.5623 15.9733 42.1005 15.4609C41.6387 14.9485 41.4078 14.246 41.4078 13.3534V12.2956C41.4078 11.7556 41.31 11.3479 41.1144 11.0724C40.9188 10.797 40.6418 10.6592 40.2832 10.6592C39.9246 10.6592 39.6014 10.8052 39.3134 11.0972C39.0255 11.3892 38.8027 11.8273 38.6452 12.4113C38.4876 12.9953 38.4089 13.7171 38.4089 14.5766C38.4089 15.8107 38.5909 16.8465 38.9549 17.684C39.3189 18.5215 39.816 19.1496 40.4462 19.5683C41.0764 19.987 41.7935 20.1964 42.5976 20.1964C43.4017 20.1964 44.0754 20.0779 44.6186 19.841C45.1619 19.6041 45.5803 19.2047 45.8736 18.6427C46.0366 18.4884 46.1643 18.3892 46.2567 18.3452C46.349 18.3011 46.4387 18.279 46.5256 18.279C46.6343 18.2901 46.7239 18.3424 46.7945 18.4361C46.8652 18.5297 46.895 18.6757 46.8842 18.8741C46.7972 19.954 46.4658 20.9071 45.8899 21.7336C45.3141 22.56 44.5372 23.2102 43.5592 23.684ZM60.1268 23.3534C58.9044 24.0256 57.4837 24.3617 55.8647 24.3617C54.2892 24.3617 52.9065 24.0339 51.7167 23.3782C50.5269 22.7226 49.6006 21.8162 48.9378 20.6592C48.275 19.5022 47.9436 18.1633 47.9436 16.6427C47.9436 15.1881 48.2913 13.8796 48.9867 12.7171C49.6821 11.5545 50.6437 10.6317 51.8716 9.94847C53.0994 9.26527 54.5119 8.92367 56.1092 8.92367C57.6956 8.92367 59.081 9.25425 60.2654 9.91541C61.4497 10.5766 62.3733 11.4912 63.0362 12.6592C63.699 13.8273 64.0304 15.1771 64.0304 16.7088C64.0304 18.1633 63.6854 19.4664 62.9954 20.6179C62.3054 21.7694 61.3492 22.6813 60.1268 23.3534ZM57.1034 22.6427C56.7666 22.7088 56.4379 22.56 56.1174 22.1964C55.7968 21.8328 55.4926 21.2212 55.2046 20.3617C54.9167 19.5022 54.6423 18.3727 54.3816 16.9733C54.1316 15.5738 53.9904 14.4223 53.9578 13.5187C53.9252 12.6151 53.9904 11.9319 54.1534 11.4691C54.3164 11.0063 54.5663 10.7363 54.9031 10.6592C55.24 10.5931 55.5686 10.7419 55.8892 11.1055C56.2097 11.4691 56.5167 12.0807 56.8101 12.9402C57.1034 13.7997 57.3805 14.9292 57.6413 16.3286C57.9021 17.7281 58.046 18.8824 58.0732 19.7914C58.1004 20.7005 58.0297 21.3865 57.8613 21.8493C57.6929 22.3121 57.4403 22.5766 57.1034 22.6427ZM86.2618 24.0642C86.7725 24.0642 87.0278 23.8107 87.0278 23.3038C87.0278 23.0835 86.968 22.9099 86.8485 22.7832C86.729 22.6565 86.5443 22.5766 86.2944 22.5435L84.8927 22.3286C84.6862 22.2956 84.5368 22.1964 84.4445 22.0311C84.3521 21.8658 84.3059 21.6289 84.3059 21.3204V11.0228H85.4631C86.0716 11.0228 86.5171 10.9182 86.7996 10.7088C87.0821 10.4994 87.2234 10.2295 87.2234 9.89888C87.2234 9.6785 87.1555 9.51596 87.0197 9.41128C86.8838 9.30659 86.691 9.25425 86.4411 9.25425H84.027L84.0121 9.16756C83.9681 8.955 83.8801 8.74144 83.7481 8.5269L83.6784 8.41954C83.4339 8.06142 83.1324 7.69778 82.7738 7.32863C82.4153 6.95949 82.0567 6.57381 81.6981 6.17161C81.3396 5.7694 81.038 5.3369 80.7936 4.87409C80.5491 4.41128 80.4268 3.91541 80.4268 3.38648C80.4268 2.86858 80.5301 2.47188 80.7365 2.1964C80.943 1.92092 81.2472 1.78318 81.6492 1.78318C81.9643 1.78318 82.198 1.87409 82.3501 2.05591C82.5022 2.23772 82.5783 2.52147 82.5783 2.90715V4.37822C82.5783 5.21569 82.8173 5.88786 83.2954 6.39475C83.7735 6.90164 84.4037 7.15508 85.1861 7.15508C85.8923 7.15508 86.4709 6.93745 86.9219 6.50219C87.3728 6.06693 87.5983 5.41403 87.5983 4.54351C87.5983 3.80522 87.4081 3.12478 87.0278 2.50219C86.6475 1.8796 86.0743 1.38098 85.3083 1.00632C84.5423 0.631664 83.5779 0.444336 82.4153 0.444336C80.6116 0.444336 79.2207 0.876843 78.2428 1.74186C77.2649 2.60687 76.7759 3.76114 76.7759 5.20467C76.7759 5.81073 76.8574 6.32037 77.0204 6.73359C77.1834 7.14682 77.3681 7.50219 77.5746 7.79971C77.781 8.09723 77.9657 8.36445 78.1287 8.60136C78.251 8.77905 78.3274 8.96448 78.3579 9.15766L78.3691 9.25425H76.9389C76.7298 9.25425 76.5601 9.30276 76.43 9.39979L76.3766 9.44434C76.2408 9.57106 76.1729 9.73359 76.1729 9.93194C76.1729 10.1303 76.2272 10.2983 76.3359 10.4361C76.4445 10.5738 76.6238 10.7033 76.8737 10.8245L77.8191 11.1386C78.0255 11.2267 78.1668 11.3231 78.2428 11.4278C78.3189 11.5325 78.3569 11.662 78.3569 11.8162V21.37C78.3569 21.6565 78.308 21.8768 78.2102 22.0311C78.1124 22.1854 77.9766 22.2901 77.8028 22.3452L77.1019 22.56C76.9063 22.6372 76.7624 22.7363 76.67 22.8576C76.5776 22.9788 76.5315 23.1386 76.5315 23.3369C76.5315 23.5683 76.5994 23.7474 76.7352 23.8741C76.871 24.0008 77.0476 24.0642 77.2649 24.0642H86.2618ZM99.0236 23.5848C97.9697 24.1248 96.7527 24.3947 95.3727 24.3947C93.8515 24.3947 92.515 24.0779 91.3633 23.4443C90.2115 22.8107 89.3123 21.9237 88.6658 20.7832C88.0193 19.6427 87.696 18.3231 87.696 16.8245C87.696 15.2487 88.0084 13.8686 88.6332 12.684C89.258 11.4994 90.1626 10.5766 91.347 9.91541C92.5313 9.25425 93.9547 8.92367 95.6172 8.92367C97.0298 8.92367 98.2467 9.20191 99.2681 9.75839C100.289 10.3149 101.075 11.0697 101.623 12.0228C102.172 12.976 102.446 14.0366 102.446 15.2047C102.446 15.7116 102.311 16.111 102.039 16.403L101.974 16.4678C101.706 16.7166 101.337 16.841 100.865 16.841H93.4146L93.4306 16.9173C93.6283 17.8247 93.966 18.5514 94.4437 19.0972C95.2586 20.0284 96.3452 20.4939 97.7034 20.4939C98.5727 20.4939 99.3415 20.2956 100.01 19.8989C100.678 19.5022 101.126 18.9512 101.354 18.246C101.485 18.1027 101.602 18.0063 101.705 17.9567C101.808 17.9071 101.898 17.8824 101.974 17.8824C102.082 17.8824 102.175 17.9264 102.251 18.0146C102.327 18.1027 102.365 18.2515 102.365 18.4609C102.365 19.5408 102.071 20.5297 101.485 21.4278C100.898 22.3259 100.078 23.0449 99.0236 23.5848ZM93.2446 15.516C93.229 15.2625 93.2213 14.9989 93.2213 14.7253C93.2213 13.6895 93.2974 12.8741 93.4495 12.279C93.6016 11.684 93.7972 11.2625 94.0362 11.0146C94.2753 10.7667 94.5415 10.6427 94.8349 10.6427C95.2152 10.6427 95.571 10.9678 95.9024 11.6179C96.2338 12.268 96.3995 13.3479 96.3995 14.8576C96.3995 15.3204 96.1931 15.5518 95.7802 15.5518H93.2467L93.2446 15.516ZM114.605 23.5848C113.551 24.1248 112.334 24.3947 110.954 24.3947C109.433 24.3947 108.097 24.0779 106.945 23.4443C105.793 22.8107 104.894 21.9237 104.247 20.7832C103.601 19.6427 103.278 18.3231 103.278 16.8245C103.278 15.2487 103.59 13.8686 104.215 12.684C104.84 11.4994 105.744 10.5766 106.928 9.91541C108.113 9.25425 109.536 8.92367 111.199 8.92367C112.611 8.92367 113.828 9.20191 114.85 9.75839C115.871 10.3149 116.656 11.0697 117.205 12.0228C117.754 12.976 118.028 14.0366 118.028 15.2047C118.028 15.7116 117.892 16.111 117.62 16.403L117.556 16.4678C117.288 16.7166 116.918 16.841 116.447 16.841H108.996L109.012 16.9173C109.21 17.8247 109.548 18.5514 110.025 19.0972C110.84 20.0284 111.927 20.4939 113.285 20.4939C114.154 20.4939 114.923 20.2956 115.591 19.8989C116.259 19.5022 116.708 18.9512 116.936 18.246C117.066 18.1027 117.183 18.0063 117.286 17.9567C117.39 17.9071 117.479 17.8824 117.555 17.8824C117.664 17.8824 117.756 17.9264 117.832 18.0146C117.908 18.1027 117.946 18.2515 117.946 18.4609C117.946 19.5408 117.653 20.5297 117.066 21.4278C116.48 22.3259 115.659 23.0449 114.605 23.5848ZM108.826 15.516C108.811 15.2625 108.803 14.9989 108.803 14.7253C108.803 13.6895 108.879 12.8741 109.031 12.279C109.183 11.684 109.379 11.2625 109.618 11.0146C109.857 10.7667 110.123 10.6427 110.416 10.6427C110.797 10.6427 111.153 10.9678 111.484 11.6179C111.815 12.268 111.981 13.3479 111.981 14.8576C111.981 15.3204 111.775 15.5518 111.362 15.5518H108.828L108.826 15.516ZM128.5 23.8576C128.364 23.9953 128.166 24.0642 127.905 24.0642H119.756C119.516 24.0642 119.329 23.9981 119.193 23.8658C119.057 23.7336 118.99 23.5518 118.99 23.3204C118.99 23.1441 119.03 22.9981 119.112 22.8824C119.193 22.7666 119.305 22.6592 119.446 22.56L119.821 22.4113C119.962 22.3452 120.06 22.2405 120.114 22.0972C120.168 21.954 120.196 21.7171 120.196 21.3865V12.9898C120.196 12.7253 120.166 12.5352 120.106 12.4195C120.046 12.3038 119.946 12.2129 119.804 12.1468L119.381 12.0972C119.229 12.0091 119.117 11.9154 119.047 11.8162C118.976 11.7171 118.941 11.5903 118.941 11.4361C118.941 11.2598 118.995 11.1027 119.104 10.965C119.212 10.8273 119.397 10.7088 119.658 10.6096L124.287 9.27078C124.558 9.16059 124.786 9.08345 124.971 9.03938C125.156 8.9953 125.313 8.97326 125.444 8.97326C125.628 8.97326 125.767 9.03938 125.859 9.17161L125.889 9.21956C125.965 9.35778 126.018 9.57871 126.047 9.88235L126.171 12.4508L126.199 12.356C126.254 12.177 126.315 12.0054 126.381 11.841C126.778 10.8548 127.302 10.122 127.954 9.64268C128.606 9.16334 129.317 8.92367 130.089 8.92367C131.023 8.92367 131.741 9.23772 132.24 9.86582C132.74 10.4939 132.99 11.4471 132.99 12.7253C132.99 13.9925 132.729 14.9237 132.208 15.5187C131.686 16.1138 131.012 16.4113 130.187 16.4113C129.383 16.4113 128.788 16.2074 128.402 15.7997C128.016 15.392 127.813 14.8135 127.791 14.0642L127.774 13.403C127.764 13.1496 127.715 12.9512 127.628 12.808C127.541 12.6647 127.4 12.5931 127.204 12.5931C127.008 12.5931 126.837 12.695 126.691 12.8989C126.544 13.1027 126.433 13.414 126.357 13.8328C126.28 14.2515 126.242 14.7859 126.242 15.4361V21.2543C126.242 21.5628 126.291 21.808 126.389 21.9898C126.487 22.1716 126.639 22.2846 126.845 22.3286L128.068 22.5766C128.296 22.6096 128.459 22.695 128.557 22.8328C128.655 22.9705 128.704 23.133 128.704 23.3204C128.704 23.5408 128.636 23.7198 128.5 23.8576ZM141.531 24.3617C143.15 24.3617 144.57 24.0256 145.793 23.3534C147.015 22.6813 147.971 21.7694 148.661 20.6179C149.351 19.4664 149.696 18.1633 149.696 16.7088C149.696 15.1771 149.365 13.8273 148.702 12.6592C148.039 11.4912 147.116 10.5766 145.931 9.91541C144.747 9.25425 143.361 8.92367 141.775 8.92367C140.178 8.92367 138.765 9.26527 137.537 9.94847C136.31 10.6317 135.348 11.5545 134.653 12.7171C133.957 13.8796 133.609 15.1881 133.609 16.6427C133.609 18.1633 133.941 19.5022 134.604 20.6592C135.266 21.8162 136.193 22.7226 137.383 23.3782C138.572 24.0339 139.955 24.3617 141.531 24.3617ZM141.783 22.1964C142.104 22.56 142.432 22.7088 142.769 22.6427C143.106 22.5766 143.359 22.3121 143.527 21.8493C143.696 21.3865 143.766 20.7005 143.739 19.7914C143.712 18.8824 143.568 17.7281 143.307 16.3286C143.046 14.9292 142.769 13.7997 142.476 12.9402C142.183 12.0807 141.876 11.4691 141.555 11.1055C141.234 10.7419 140.906 10.5931 140.569 10.6592C140.232 10.7363 139.982 11.0063 139.819 11.4691C139.656 11.9319 139.591 12.6151 139.624 13.5187C139.656 14.4223 139.797 15.5738 140.047 16.9733C140.308 18.3727 140.583 19.5022 140.87 20.3617C141.158 21.2212 141.463 21.8328 141.783 22.1964ZM162.621 24.3947C163.534 24.3947 164.284 24.2267 164.87 23.8906C165.457 23.5545 165.894 23.1551 166.182 22.6923C166.47 22.2295 166.614 21.8052 166.614 21.4195C166.614 21.2543 166.579 21.1165 166.508 21.0063C166.438 20.8961 166.343 20.841 166.223 20.841C166.169 20.841 166.12 20.852 166.076 20.8741C166.033 20.8961 165.995 20.9292 165.962 20.9733C165.908 21.1716 165.824 21.3093 165.71 21.3865C165.596 21.4636 165.473 21.5022 165.343 21.5022C165.158 21.5022 165.02 21.4388 164.927 21.3121C164.835 21.1854 164.789 21.0173 164.789 20.808V13.5022C164.789 12.0476 164.297 10.9209 163.314 10.122C162.33 9.32312 160.79 8.92367 158.693 8.92367C157.063 8.92367 155.702 9.12753 154.61 9.53524C153.518 9.94296 152.698 10.4636 152.149 11.0972C151.6 11.7308 151.326 12.3782 151.326 13.0394C151.326 13.7446 151.53 14.2818 151.937 14.6509C152.345 15.0201 152.934 15.2047 153.706 15.2047C154.651 15.2047 155.395 14.9485 155.939 14.4361C156.482 13.9237 156.754 13.2598 156.754 12.4443V11.1881C156.754 10.8796 156.849 10.6399 157.039 10.4691C157.229 10.2983 157.465 10.2129 157.748 10.2129C158.052 10.2129 158.294 10.3259 158.473 10.5518C158.652 10.7777 158.742 11.0835 158.742 11.4691L158.742 16.2873L158.655 16.2685C158.393 16.2178 158.089 16.1889 157.744 16.1817L157.568 16.1799C155.232 16.1799 153.491 16.5766 152.345 17.37C151.198 18.1633 150.625 19.2708 150.625 20.6923C150.625 21.7722 151.019 22.6592 151.807 23.3534C152.595 24.0476 153.64 24.3947 154.944 24.3947C155.922 24.3947 156.835 24.1936 157.683 23.7914C158.318 23.4898 158.835 23.0936 159.232 22.6029L159.254 22.5743L159.278 22.6482C159.404 23.0055 159.633 23.3256 159.967 23.6085L160.07 23.6923C160.673 24.1606 161.524 24.3947 162.621 24.3947ZM157.006 21.279C157.272 21.6372 157.623 21.8162 158.057 21.8162L158.151 21.813C158.336 21.8001 158.515 21.7484 158.688 21.6581L158.742 21.628V17.3865L158.66 17.3617C158.476 17.3121 158.258 17.2873 158.009 17.2873C157.585 17.2873 157.245 17.4857 156.99 17.8824C156.735 18.279 156.607 18.8631 156.607 19.6344C156.607 20.3727 156.74 20.9209 157.006 21.279ZM174.112 24.4443C176.046 24.4443 177.529 23.9981 178.561 23.1055C179.593 22.2129 180.11 20.9953 180.11 19.4526C180.11 18.516 179.936 17.695 179.588 16.9898C179.24 16.2846 178.632 15.6592 177.763 15.1138C176.893 14.5683 175.671 14.0532 174.095 13.5683C173.509 13.381 173.055 13.1909 172.734 12.9981C172.414 12.8052 172.194 12.5986 172.074 12.3782C171.955 12.1578 171.895 11.9209 171.895 11.6675C171.895 11.2928 172.031 10.9898 172.302 10.7584C172.574 10.527 172.976 10.4113 173.509 10.4113C174.247 10.4113 174.946 10.6592 175.603 11.1551C176.26 11.6509 176.986 12.4994 177.779 13.7005C177.985 13.954 178.192 14.1386 178.398 14.2543C178.605 14.37 178.8 14.4058 178.985 14.3617C179.213 14.2956 179.354 14.1441 179.409 13.9071C179.463 13.6702 179.452 13.3314 179.376 12.8906L178.952 9.84929C178.909 9.52974 178.827 9.30384 178.708 9.17161C178.588 9.03938 178.431 8.97326 178.235 8.97326C178.061 8.97326 177.844 9.03387 177.583 9.15508C177.322 9.27629 177.064 9.40026 176.809 9.52698C176.554 9.6537 176.361 9.71706 176.23 9.71706C176.111 9.71706 175.934 9.65095 175.701 9.51872C175.467 9.38648 175.138 9.25425 174.715 9.12202C174.291 8.98979 173.742 8.92367 173.068 8.92367C171.949 8.92367 170.942 9.12753 170.045 9.53524C169.149 9.94296 168.442 10.5242 167.926 11.279C167.41 12.0339 167.152 12.9347 167.152 13.9815C167.152 14.9071 167.345 15.7171 167.731 16.4113C168.116 17.1055 168.706 17.7005 169.499 18.1964C170.292 18.6923 171.292 19.0945 172.498 19.403C173.28 19.6124 173.881 19.8245 174.299 20.0394C174.717 20.2543 175.005 20.4884 175.163 20.7419C175.32 20.9953 175.399 21.2763 175.399 21.5848C175.399 21.9925 175.263 22.3286 174.992 22.5931C174.72 22.8576 174.307 22.9898 173.753 22.9898C173.231 22.9898 172.734 22.8768 172.262 22.6509C171.789 22.4251 171.303 22.0366 170.803 21.4857C170.303 20.9347 169.744 20.1799 169.124 19.2212C168.939 18.9678 168.73 18.7914 168.497 18.6923C168.263 18.5931 168.027 18.5986 167.788 18.7088C167.56 18.797 167.413 18.9843 167.348 19.2708C167.282 19.5573 167.299 19.9099 167.397 20.3286L167.902 23.6179C167.978 23.9485 168.087 24.1689 168.228 24.279C168.369 24.3892 168.521 24.4443 168.684 24.4443C168.869 24.4443 169.094 24.3837 169.361 24.2625L170.159 23.8989C170.425 23.7777 170.64 23.7171 170.803 23.7171C170.966 23.7171 171.181 23.7777 171.447 23.8989C171.713 24.0201 172.061 24.1413 172.49 24.2625C172.919 24.3837 173.46 24.4443 174.112 24.4443ZM189.563 23.8245C188.846 24.2047 187.998 24.3947 187.02 24.3947C185.369 24.3947 184.127 23.9925 183.296 23.1881C182.465 22.3837 182.049 21.1165 182.049 19.3865V11.9154C182.049 11.684 182.027 11.5077 181.984 11.3865C181.94 11.2653 181.832 11.1661 181.658 11.089L180.892 10.841C180.707 10.7529 180.588 10.6454 180.533 10.5187C180.479 10.392 180.452 10.235 180.452 10.0476C180.452 9.81624 180.533 9.62615 180.696 9.47739C180.859 9.32863 181.06 9.25425 181.299 9.25425H182.098C182.196 9.25425 182.299 9.21569 182.408 9.13855C182.516 9.06142 182.663 8.90715 182.848 8.67574L185.863 6.14682C186.08 5.88235 186.298 5.68125 186.515 5.54351C186.732 5.40577 186.95 5.3369 187.167 5.3369C187.417 5.3369 187.612 5.41403 187.754 5.5683L187.798 5.62299C187.91 5.77753 187.965 6.00173 187.965 6.29558L187.965 9.25425H191.372C191.611 9.25425 191.796 9.30659 191.926 9.41128C192.056 9.51596 192.122 9.6785 192.122 9.89888C192.122 10.2074 191.986 10.4719 191.714 10.6923L191.653 10.7378C191.38 10.9278 190.965 11.0228 190.41 11.0228H187.965L187.965 18.56C187.965 19.3865 188.104 19.9981 188.381 20.3947C188.658 20.7914 189.063 20.9898 189.595 20.9898C189.824 20.9898 190.035 20.9402 190.231 20.841C190.427 20.7419 190.603 20.6124 190.761 20.4526C190.918 20.2928 191.068 20.1138 191.209 19.9154C191.35 19.7171 191.486 19.5187 191.616 19.3204C191.725 19.2763 191.82 19.2956 191.902 19.3782C191.983 19.4609 192.018 19.6289 192.008 19.8824C191.932 20.7749 191.684 21.56 191.266 22.2377C190.848 22.9154 190.28 23.4443 189.563 23.8245ZM200.238 24.3947C201.618 24.3947 202.835 24.1248 203.889 23.5848C204.943 23.0449 205.764 22.3259 206.35 21.4278C206.937 20.5297 207.231 19.5408 207.231 18.4609C207.231 18.2515 207.193 18.1027 207.116 18.0146C207.04 17.9264 206.948 17.8824 206.839 17.8824C206.763 17.8824 206.674 17.9071 206.57 17.9567C206.467 18.0063 206.35 18.1027 206.22 18.246C205.992 18.9512 205.544 19.5022 204.875 19.8989C204.207 20.2956 203.438 20.4939 202.569 20.4939C201.211 20.4939 200.124 20.0284 199.309 19.0972C198.832 18.5514 198.494 17.8247 198.296 16.9173L198.28 16.841H205.731C206.202 16.841 206.572 16.7166 206.84 16.4678L206.905 16.403C207.176 16.111 207.312 15.7116 207.312 15.2047C207.312 14.0366 207.038 12.976 206.489 12.0228C205.94 11.0697 205.155 10.3149 204.134 9.75839C203.112 9.20191 201.895 8.92367 200.483 8.92367C198.82 8.92367 197.397 9.25425 196.213 9.91541C195.028 10.5766 194.124 11.4994 193.499 12.684C192.874 13.8686 192.562 15.2487 192.562 16.8245C192.562 18.3231 192.885 19.6427 193.531 20.7832C194.178 21.9237 195.077 22.8107 196.229 23.4443C197.381 24.0779 198.717 24.3947 200.238 24.3947ZM198.087 14.7253C198.087 14.9989 198.095 15.2625 198.11 15.516L198.112 15.5518H200.646C201.059 15.5518 201.265 15.3204 201.265 14.8576C201.265 13.3479 201.1 12.268 200.768 11.6179C200.437 10.9678 200.081 10.6427 199.701 10.6427C199.407 10.6427 199.141 10.7667 198.902 11.0146C198.663 11.2625 198.467 11.684 198.315 12.279C198.163 12.8741 198.087 13.6895 198.087 14.7253ZM217.189 24.0642C217.45 24.0642 217.648 23.9953 217.784 23.8576C217.92 23.7198 217.988 23.5408 217.988 23.3204C217.988 23.133 217.939 22.9705 217.841 22.8328C217.743 22.695 217.58 22.6096 217.352 22.5766L216.13 22.3286C215.923 22.2846 215.771 22.1716 215.673 21.9898C215.575 21.808 215.527 21.5628 215.527 21.2543V15.4361C215.527 14.7859 215.565 14.2515 215.641 13.8328C215.717 13.414 215.828 13.1027 215.975 12.8989C216.121 12.695 216.293 12.5931 216.488 12.5931C216.684 12.5931 216.825 12.6647 216.912 12.808C216.999 12.9512 217.048 13.1496 217.059 13.403L217.075 14.0642C217.097 14.8135 217.3 15.392 217.686 15.7997C218.072 16.2074 218.667 16.4113 219.471 16.4113C220.297 16.4113 220.97 16.1138 221.492 15.5187C222.013 14.9237 222.274 13.9925 222.274 12.7253C222.274 11.4471 222.024 10.4939 221.524 9.86582C221.025 9.23772 220.307 8.92367 219.373 8.92367C218.602 8.92367 217.89 9.16334 217.238 9.64268C216.586 10.122 216.062 10.8548 215.665 11.841C215.599 12.0054 215.538 12.177 215.483 12.356L215.455 12.4512L215.331 9.88235C215.302 9.57871 215.249 9.35778 215.173 9.21956L215.144 9.17161C215.051 9.03938 214.913 8.97326 214.728 8.97326C214.598 8.97326 214.44 8.9953 214.255 9.03938C214.071 9.08345 213.842 9.16059 213.571 9.27078L208.942 10.6096C208.681 10.7088 208.496 10.8273 208.388 10.965C208.279 11.1027 208.225 11.2598 208.225 11.4361C208.225 11.5903 208.26 11.7171 208.331 11.8162C208.401 11.9154 208.513 12.0091 208.665 12.0972L209.089 12.1468C209.23 12.2129 209.33 12.3038 209.39 12.4195C209.45 12.5352 209.48 12.7253 209.48 12.9898V21.3865C209.48 21.7171 209.453 21.954 209.398 22.0972C209.344 22.2405 209.246 22.3452 209.105 22.4113L208.73 22.56C208.589 22.6592 208.477 22.7666 208.396 22.8824C208.314 22.9981 208.274 23.1441 208.274 23.3204C208.274 23.5518 208.342 23.7336 208.477 23.8658C208.613 23.9981 208.801 24.0642 209.04 24.0642H217.189ZM234.352 23.1055C233.319 23.9981 231.836 24.4443 229.902 24.4443C229.25 24.4443 228.709 24.3837 228.28 24.2625C227.851 24.1413 227.503 24.0201 227.237 23.8989C226.971 23.7777 226.756 23.7171 226.593 23.7171C226.43 23.7171 226.216 23.7777 225.95 23.8989L225.151 24.2625C224.885 24.3837 224.659 24.4443 224.475 24.4443C224.312 24.4443 224.159 24.3892 224.018 24.279C223.877 24.1689 223.768 23.9485 223.692 23.6179L223.187 20.3286C223.089 19.9099 223.073 19.5573 223.138 19.2708C223.203 18.9843 223.35 18.797 223.578 18.7088C223.817 18.5986 224.053 18.5931 224.287 18.6923C224.521 18.7914 224.73 18.9678 224.915 19.2212C225.534 20.1799 226.094 20.9347 226.593 21.4857C227.093 22.0366 227.579 22.4251 228.052 22.6509C228.525 22.8768 229.022 22.9898 229.543 22.9898C230.098 22.9898 230.51 22.8576 230.782 22.5931C231.054 22.3286 231.19 21.9925 231.19 21.5848C231.19 21.2763 231.111 20.9953 230.953 20.7419C230.796 20.4884 230.508 20.2543 230.089 20.0394C229.671 19.8245 229.071 19.6124 228.288 19.403C227.082 19.0945 226.083 18.6923 225.289 18.1964C224.496 17.7005 223.907 17.1055 223.521 16.4113C223.135 15.7171 222.942 14.9071 222.942 13.9815C222.942 12.9347 223.201 12.0339 223.717 11.279C224.233 10.5242 224.939 9.94296 225.835 9.53524C226.732 9.12753 227.74 8.92367 228.859 8.92367C229.533 8.92367 230.081 8.98979 230.505 9.12202C230.929 9.25425 231.258 9.38648 231.491 9.51872C231.725 9.65095 231.901 9.71706 232.021 9.71706C232.151 9.71706 232.344 9.6537 232.599 9.52698C232.855 9.40026 233.113 9.27629 233.374 9.15508C233.634 9.03387 233.852 8.97326 234.026 8.97326C234.221 8.97326 234.379 9.03938 234.498 9.17161C234.618 9.30384 234.699 9.52974 234.743 9.84929L235.166 12.8906C235.243 13.3314 235.253 13.6702 235.199 13.9071C235.145 14.1441 235.003 14.2956 234.775 14.3617C234.591 14.4058 234.395 14.37 234.189 14.2543C233.982 14.1386 233.776 13.954 233.569 13.7005C232.776 12.4994 232.051 11.6509 231.393 11.1551C230.736 10.6592 230.038 10.4113 229.299 10.4113C228.767 10.4113 228.364 10.527 228.093 10.7584C227.821 10.9898 227.685 11.2928 227.685 11.6675C227.685 11.9209 227.745 12.1578 227.865 12.3782C227.984 12.5986 228.204 12.8052 228.525 12.9981C228.845 13.1909 229.299 13.381 229.886 13.5683C231.461 14.0532 232.684 14.5683 233.553 15.1138C234.422 15.6592 235.031 16.2846 235.378 16.9898C235.726 17.695 235.9 18.516 235.9 19.4526C235.9 20.9953 235.384 22.2129 234.352 23.1055Z" fill="white"/>
<path fill-rule="evenodd" clip-rule="evenodd" d="M14.3893 4.44702C10.8748 0.935462 5.66545 0.429955 2.77651 3.322C-0.113923 6.21254 0.391566 11.4221 3.89999 14.9352C4.83597 15.8712 5.91444 16.5867 7.05292 17.0997C7.42641 14.9292 8.49738 12.8426 10.1233 11.1296C9.58486 10.9376 9.03287 10.7756 8.45688 10.6181C5.04596 9.6821 3.351 6.83655 2.95501 3.5005C3.28253 3.89436 3.58072 4.30747 3.87804 4.71937C4.4549 5.51854 5.02845 6.31312 5.80644 6.95355C7.01669 7.95009 8.34513 8.33478 9.79845 8.75564C9.85457 8.77188 9.91086 8.78819 9.96735 8.80458C10.6558 9.00409 11.2543 9.29959 11.8033 9.6446C13.2463 8.59008 14.8737 7.88807 16.5537 7.59856C16.0422 6.46005 15.3252 5.38303 14.3893 4.44702ZM8.44638 17.9337C8.66988 15.7602 9.72286 13.6347 11.4103 11.9471C14.9247 8.43558 20.1341 7.92857 23.0231 10.8221C25.9135 13.7127 25.4095 18.9222 21.8966 22.4353C20.2091 24.1228 18.0837 25.1758 15.9102 25.4008C15.6207 25.4293 15.3342 25.4443 15.0537 25.4443C13.1848 25.4443 11.5153 24.7888 10.2853 23.5588C8.86938 22.1443 8.21539 20.1463 8.44638 17.9337ZM13.5868 19.7172C14.7387 18.8382 15.9852 18.4902 17.3412 18.1197C20.7521 17.1837 22.4456 14.3382 22.8431 11.0021C22.5183 11.3938 22.2223 11.8041 21.9272 12.2132C21.3486 13.0152 20.7734 13.8125 19.9916 14.4552C18.7777 15.4533 17.4462 15.8387 15.9863 16.2611L15.8307 16.3062C12.4933 17.2752 10.8433 20.0968 10.4623 23.3803C10.7911 22.9853 11.0923 22.5752 11.3919 22.1673C12.0422 21.2817 12.6851 20.4063 13.5868 19.7172Z" fill="#0E8784"/>
</svg>
